<svg width="41" height="40" viewBox="0 0 41 40" fill="none" xmlns="http://www.w3.org/2000/svg">
<path d="M6.08913 0.154189C5.60392 0.274279 4.8761 0.754638 4.47176 1.235C4.04046 1.69134 3.23178 2.26777 2.63874 2.50795C1.21007 3.08438 0.617032 3.70885 0.428338 4.83769L0.266602 5.77439L0.859637 5.246C1.9918 4.21323 4.90306 3.94903 6.78999 4.76564C7.92215 5.246 7.84128 6.13466 6.43956 8.65655C5.3074 10.6981 5.19958 11.0103 5.19958 12.6676C5.19958 15.4536 6.62825 18.1196 9.56647 20.9057C10.483 21.7704 10.5908 21.8184 10.5908 21.314C10.5908 21.0258 10.2673 20.0891 9.88995 19.2725C8.67692 16.7266 8.43432 15.7178 8.43432 13.1959C8.43432 10.4099 8.86561 8.82468 10.0517 7.35958C10.8334 6.42288 12.5586 5.41412 12.8821 5.70234C12.9629 5.77439 12.7473 6.42288 12.3699 7.1194C10.9952 9.71334 10.483 13.4121 11.1569 15.982C11.9117 18.9362 14.0951 21.2179 17.1142 22.2507C18.5159 22.7071 19.2707 22.8031 21.508 22.8031C23.7724 22.7791 24.608 22.659 26.7645 22.0105C29.5949 21.1699 30.5653 21.1939 31.2662 22.1306C32.4522 23.7639 29.8645 28.1832 24.4193 33.6833C23.6106 34.4999 22.3706 35.6047 21.6698 36.1331L20.3759 37.0938L17.1681 35.7008C13.6638 34.1636 7.00564 30.8251 6.14304 30.1526C5.0648 29.336 4.82219 29.36 5.65783 30.2247C7.05955 31.6417 9.9169 33.8514 12.8282 35.7969C14.3377 36.7816 15.7125 37.6943 15.8473 37.7903C16.8177 38.4869 19.9446 40 20.4028 40C20.8611 40 23.5298 38.631 24.7428 37.7903C24.9045 37.6703 25.7941 37.0458 26.7645 36.3733C30.2688 33.9715 32.5062 31.7618 34.7435 28.5915C36.2531 26.4298 38.0322 21.6743 39.2182 16.5825C40.1617 12.4994 40.62 4.93377 39.9461 4.54948C39.7304 4.42939 37.3313 3.82894 34.5818 3.22849C31.8323 2.60402 27.5193 1.61929 25.0123 1.04285L20.4028 0.0100814L17.5994 0.802674C14.4725 1.69134 14.0142 1.66732 11.3456 0.778656C9.243 0.0340993 7.30216 -0.182062 6.08913 0.154189ZM25.4167 3.75688C27.5732 4.54948 29.5679 5.29403 29.8645 5.41412C30.161 5.53421 31.5088 5.9185 32.8296 6.30279L35.2557 6.97529L35.3366 8.51244C35.4174 9.85745 34.9861 13.292 34.7435 13.5322C34.5548 13.7003 32.4522 12.4994 28.1123 9.73736C25.6593 8.20021 22.4246 6.20672 20.8881 5.31805C19.3516 4.42939 18.1655 3.63679 18.2464 3.56474C18.462 3.3726 20.942 2.33982 21.2385 2.31581C21.3733 2.29179 23.2602 2.94027 25.4167 3.75688ZM17.7342 6.25475C18.7855 6.80717 24.0689 10.8422 24.0689 11.0824C24.0689 11.1544 23.7454 11.5867 23.368 12.0191C22.6941 12.8117 22.6941 13.3401 23.3141 13.3401C23.7724 13.3401 24.8776 14.3248 24.8776 14.7331C24.8776 15.0213 24.635 15.0453 23.6645 14.9493C22.9906 14.8532 22.4515 14.8772 22.4515 14.9733C22.4515 15.0693 22.7211 15.5737 23.0715 16.1021C23.7724 17.1829 25.4167 18.1436 26.6567 18.1436C28.7862 18.1436 31.0775 16.4144 31.0775 14.7571C31.0775 14.3248 31.1853 14.2768 31.8323 14.3968C32.2366 14.4689 32.9644 14.613 33.4496 14.6851C34.5548 14.8772 34.5548 15.3335 33.5305 16.7266C32.2366 18.4319 29.4062 20.1131 26.6297 20.7616C25.255 21.0979 21.0228 21.0979 19.6211 20.7616C12.9629 19.2004 10.7525 14.0126 13.9064 7.21547C14.2029 6.54297 14.5803 5.87047 14.7151 5.70234C15.0655 5.29403 16.3325 5.53421 17.7342 6.25475Z" fill="#fff"/>
</svg>
