<svg width="100" height="100" viewBox="0 0 120 120" fill="none" xmlns="http://www.w3.org/2000/svg">
<path d="M17.4676 0.462569C16.0119 0.822839 13.8285 2.26392 12.6155 3.705C11.3216 5.07402 8.89553 6.80331 7.11641 7.52385C2.8304 9.25314 1.05129 11.1266 0.485208 14.5131L0 17.3232L1.7791 15.738C5.17559 12.6397 13.9094 11.8471 19.5702 14.2969C22.9666 15.738 22.724 18.404 18.5189 25.9697C15.1224 32.0943 14.7989 33.0309 14.7989 38.0028C14.7989 46.3608 19.0849 54.3588 27.8996 62.7171C30.6492 65.3112 30.9726 65.4552 30.9726 63.942C30.9726 63.0774 30.0021 60.2673 28.87 57.8175C25.2309 50.1798 24.5031 47.1534 24.5031 39.5877C24.5031 31.2297 25.797 26.474 29.3553 22.0787C31.7004 19.2686 36.876 16.2424 37.8465 17.107C38.0889 17.3232 37.4421 19.2686 36.3099 21.3582C32.1858 29.14 30.6492 40.2363 32.6709 47.946C34.9353 56.8086 41.4855 63.6537 50.5428 66.7521C54.7479 68.1213 57.0123 68.4093 63.7242 68.4093C70.5173 68.3373 73.0241 67.977 79.4936 66.0315C87.9848 63.5097 90.896 63.5817 92.9987 66.3918C96.5567 71.2917 88.7936 84.5496 72.458 101.05C70.032 103.5 66.312 106.814 64.2096 108.399L60.3279 111.281L50.7045 107.102C40.1916 102.491 20.2171 92.4753 17.6293 90.4578C14.3946 88.008 13.6668 88.08 16.1737 90.6741C20.3788 94.9251 28.9509 101.554 37.6848 107.391C42.2133 110.345 46.3377 113.083 46.7421 113.371C49.6533 115.461 59.034 120 60.4086 120C61.7835 120 69.7896 115.893 73.4285 113.371C73.9136 113.011 76.5824 111.137 79.4936 109.12C90.0065 101.914 96.7187 95.2854 103.431 85.7745C107.959 79.2894 113.297 65.0229 116.855 49.7475C119.685 37.4982 121.06 14.8013 119.038 13.6484C118.391 13.2882 111.194 11.4868 102.946 9.68547C94.697 7.81206 81.758 4.85787 74.237 3.12855L60.4086 0.0302465L51.9984 2.40802C42.6177 5.07402 41.2428 5.00196 33.237 2.33597C26.9292 0.1023 21.1067 -0.546184 17.4676 0.462569ZM75.4502 11.2706C81.9197 13.6484 87.9038 15.8821 88.7936 16.2424C89.6831 16.6026 93.7265 17.7555 97.6889 18.9084L104.967 20.9259L105.21 25.5373C105.452 29.5724 104.158 39.876 103.431 40.5966C102.865 41.1009 96.5567 37.4982 83.537 29.2121C76.178 24.6006 66.474 18.6202 61.8645 15.9542C57.255 13.2882 53.6967 10.9104 53.9394 10.6942C54.5862 10.1178 62.0262 7.01946 62.9157 6.94743C63.3201 6.87537 68.9808 8.82081 75.4502 11.2706ZM52.4028 18.7643C55.5567 20.4215 71.4068 32.5266 71.4068 33.2472C71.4068 33.4632 70.4364 34.7601 69.3042 36.0573C67.2825 38.4351 67.2825 40.0203 69.1425 40.0203C70.5174 40.0203 73.8329 42.9744 73.8329 44.1993C73.8329 45.0639 73.1051 45.1359 70.1936 44.8479C68.1719 44.5596 66.5547 44.6316 66.5547 44.9199C66.5547 45.2079 67.3635 46.7211 68.4147 48.3063C70.5174 51.5487 75.4502 54.4308 79.1702 54.4308C85.5587 54.4308 92.4326 49.2432 92.4326 44.2713C92.4326 42.9744 92.756 42.8304 94.697 43.1904C95.9099 43.4067 98.0933 43.839 99.5489 44.0553C102.865 44.6316 102.865 46.0005 99.7916 50.1798C95.9099 55.2957 87.4187 60.3393 79.0892 62.2848C74.9651 63.2937 62.2686 63.2937 58.0635 62.2848C38.0889 57.6012 31.4577 42.0378 40.9194 21.6464C41.8089 19.6289 42.9411 17.6114 43.3455 17.107C44.3967 15.8821 48.1977 16.6026 52.4028 18.7643Z" fill="#2F3E46"/>
</svg>
